<svg height="512pt" viewBox="-8 0 512 512" width="512pt" xmlns="http://www.w3.org/2000/svg"><path d="m450.707031 243.625h-423.308593c-6.578126 0-11.90625-5.332031-11.90625-11.90625v-219.8125c0-6.578125 5.328124-11.90625 11.90625-11.90625h423.3125c6.574218 0 11.902343 5.328125 11.902343 11.90625v219.8125c0 6.574219-5.332031 11.90625-11.90625 11.90625zm0 0" fill="#8bebdb"/><path d="m462.617188 11.902344v219.8125c0 6.582031-5.332032 11.914062-11.914063 11.914062h-23.652344c6.566407 0 11.898438-5.332031 11.898438-11.914062v-219.8125c0-6.566406-5.332031-11.89843775-11.898438-11.89843775h23.652344c6.582031 0 11.914063 5.33203175 11.914063 11.89843775zm0 0" fill="#5ee2c5"/><path d="m419.71875 79.296875v85.03125c0 2.660156-2.113281 4.839844-4.773438 4.917969-.824218.023437-1.65625.074218-2.496093.152344-14.097657 1.289062-25.785157 11.933593-28.113281 25.894531-.277344 1.660156-.441407 3.285156-.5 4.871093-.09375 2.609376-2.304688 4.644532-4.914063 4.644532h-280.4375c-2.609375 0-4.820313-2.035156-4.917969-4.644532-.054687-1.585937-.222656-3.210937-.5-4.867187-2.324218-13.957031-14.003906-24.605469-28.097656-25.898437-.84375-.078126-1.683594-.128907-2.511719-.15625-2.660156-.078126-4.769531-2.253907-4.769531-4.914063v-85.03125c0-2.660156 2.109375-4.839844 4.769531-4.917969.828125-.023437 1.667969-.078125 2.511719-.152344 14.09375-1.296874 25.773438-11.941406 28.097656-25.902343.277344-1.65625.445313-3.277344.5-4.863281.097656-2.609376 2.308594-4.644532 4.917969-4.644532h280.4375c2.609375 0 4.820313 2.035156 4.914063 4.640625.058593 1.589844.226562 3.214844.5 4.871094 2.328124 13.964844 14.015624 24.605469 28.113281 25.898437.839843.074219 1.671875.128907 2.496093.152344 2.660157.078125 4.773438 2.253906 4.773438 4.917969zm0 0" fill="#00b7a0"/><path d="m419.714844 79.296875v85.039063c0 2.652343-2.105469 4.832031-4.773438 4.90625-.816406.03125-1.652344.082031-2.488281.152343-14.101563 1.292969-25.785156 11.933594-28.117187 25.898438-.269532 1.664062-.445313 3.285156-.496094 4.875-.09375 2.605469-2.304688 4.640625-4.917969 4.640625h-23.316406c2.617187 0 4.824219-2.035156 4.917969-4.640625.0625-1.589844.226562-3.210938.507812-4.875 1.167969-6.96875 4.765625-13.386719 10.046875-18.070313 4.3125-3.820312 9.34375-6.867187 13.640625-10.671875 5.535156-4.902343 8.367188-9.5 10.511719-16.496093 1.742187-5.679688 1.054687-12.082032 1.722656-17.949219.742187-6.523438.074219-13.113281.019531-19.652344-.101562-12.6875-1.1875-25.757813-10.222656-35.539063-3.386719-3.667968-6.847656-4.5625-11.085938-7.132812-7.699218-4.671875-13.132812-12.5625-14.636718-21.453125-.277344-1.652344-.441406-3.285156-.503906-4.863281-.09375-2.613282-2.304688-4.648438-4.917969-4.648438h23.316406c2.613281 0 4.824219 2.035156 4.917969 4.648438.050781 1.578125.226562 3.210937.496094 4.863281 2.332031 13.96875 14.015624 24.605469 28.117187 25.898437.835937.082032 1.671875.132813 2.488281.15625 2.667969.070313 4.773438 2.25 4.773438 4.914063zm0 0" fill="#009a8e"/><path d="m335.640625 111.972656c0 51.292969-41.582031 92.875-92.875 92.875-51.296875 0-92.875-41.582031-92.875-92.875 0-51.296875 41.578125-92.875 92.875-92.875 51.292969 0 92.875 41.578125 92.875 92.875zm0 0" fill="#fa0"/><path d="m335.640625 111.96875c0 51.300781-41.582031 92.882812-92.875 92.882812-25.207031 0-48.074219-10.042968-64.804687-26.355468 13.210937 7.21875 28.359374 11.320312 44.464843 11.320312 51.292969 0 92.875-41.582031 92.875-92.875 0-26.09375-10.761719-49.667968-28.085937-66.542968 28.851562 15.757812 48.425781 46.375 48.425781 81.570312zm0 0" fill="#ff9500"/><path d="m295.445312 111.972656c0 29.09375-23.585937 52.679688-52.679687 52.679688-29.097656 0-52.679687-23.585938-52.679687-52.679688 0-29.097656 23.582031-52.683594 52.679687-52.683594 29.09375 0 52.679687 23.585938 52.679687 52.683594zm0 0" fill="#ffcd6b"/><path d="m295.441406 111.96875c0 29.09375-23.582031 52.683594-52.675781 52.683594-15.625 0-29.65625-6.800782-39.296875-17.605469 6.277344 2.648437 13.179688 4.105469 20.421875 4.105469 29.097656 0 52.683594-23.585938 52.683594-52.683594 0-13.464844-5.050781-25.753906-13.371094-35.0625 18.945313 7.984375 32.238281 26.714844 32.238281 48.5625zm0 0" fill="#ffc143"/><path d="m464.988281 511.996094h-434.828125c-16.65625 0-30.160156-13.5-30.160156-30.15625v-297.410156c0-16.65625 13.503906-30.160157 30.160156-30.160157h434.832032c16.65625 0 30.160156 13.503907 30.160156 30.160157v297.410156c0 16.65625-13.503906 30.15625-30.164063 30.15625zm0 0" fill="#a87a52"/><path d="m495.152344 184.425781v297.410157c0 16.660156-13.507813 30.164062-30.164063 30.164062h-33.3125c16.664063 0 30.164063-13.5 30.164063-30.164062v-297.410157c0-16.652343-13.5-30.152343-30.164063-30.152343h33.316407c16.652343 0 30.160156 13.5 30.160156 30.152343zm0 0" fill="#906846"/><path d="m114.164062 114.0625h-14.402343c-4.277344 0-7.746094 3.46875-7.746094 7.75 0 4.277344 3.46875 7.746094 7.746094 7.746094h14.402343c4.277344 0 7.746094-3.46875 7.746094-7.746094 0-4.28125-3.46875-7.75-7.746094-7.75zm0 0" fill="#8bebdb"/><path d="m377.539062 114.0625h-14.402343c-4.277344 0-7.746094 3.46875-7.746094 7.75 0 4.277344 3.46875 7.746094 7.746094 7.746094h14.402343c4.277344 0 7.746094-3.46875 7.746094-7.746094 0-4.28125-3.464844-7.75-7.746094-7.75zm0 0" fill="#8bebdb"/><path d="m461.867188 333.132812c0 20.3125-16.464844 36.773438-36.773438 36.773438s-36.773438-16.460938-36.773438-36.773438c0-20.308593 16.464844-36.773437 36.773438-36.773437s36.773438 16.464844 36.773438 36.773437zm0 0" fill="#fa0"/><path d="m461.867188 333.132812c0 20.308594-16.464844 36.777344-36.773438 36.777344-8.453125 0-16.242188-2.851562-22.449219-7.644531 2.882813.730469 5.910157 1.117187 9.019531 1.117187 20.308594 0 36.773438-16.457031 36.773438-36.777343 0-11.859375-5.609375-22.40625-14.328125-29.128907 15.949219 4.015626 27.757813 18.457032 27.757813 35.65625zm0 0" fill="#ff9500"/></svg>