<?xml version="1.0" encoding="iso-8859-1"?>
<!-- Generator: Adobe Illustrator 21.0.0, SVG Export Plug-In . SVG Version: 6.00 Build 0)  -->
<svg version="1.1" id="Capa_1" xmlns="http://www.w3.org/2000/svg" xmlns:xlink="http://www.w3.org/1999/xlink" x="0px" y="0px"
	 viewBox="0 0 512 512" style="enable-background:new 0 0 512 512;" xml:space="preserve">
<path style="fill:#FFE07E;" d="M280,200H8c-4.418,0-8,3.582-8,8v120l8,24l-8,24v104c0,4.418,3.582,8,8,8h272c4.418,0,8-3.582,8-8
	V208C288,203.582,284.418,200,280,200z"/>
<path style="fill:#FFD653;" d="M24,480V208c0-4.418,3.582-8,8-8H8c-4.418,0-8,3.582-8,8v120l8,24l-8,24v104c0,4.418,3.582,8,8,8h24
	C27.582,488,24,484.418,24,480z"/>
<path style="fill:#EBB645;" d="M176,200h-64v63.792c0,1.769,0.492,3.533,1.55,4.951c2.143,2.87,5.77,3.917,8.98,2.847l21.47-7.157
	l21.47,7.157c0.826,0.275,1.68,0.411,2.529,0.411c2.443,0,4.847-1.119,6.437-3.241c1.068-1.425,1.563-3.201,1.563-4.982L176,200
	L176,200z"/>
<path style="fill:#F6F6F7;" d="M136,328H0v48h136c4.418,0,8-3.582,8-8v-32C144,331.582,140.418,328,136,328z"/>
<rect y="328" style="fill:#D9DADE;" width="24" height="48"/>
<g>
	<path style="fill:#8D919D;" d="M245.657,442.343l-24-24c-3.125-3.123-8.189-3.123-11.314,0l-24,24
		c-3.124,3.125-3.124,8.189,0,11.314c3.125,3.123,8.189,3.123,11.314,0L208,443.314V480c0,4.418,3.582,8,8,8s8-3.582,8-8v-36.686
		l10.343,10.343c3.286,3.284,8.829,3.021,11.805-0.539C248.767,449.985,248.541,445.227,245.657,442.343z"/>
	<path style="fill:#8D919D;" d="M149.657,418.343c-3.125-3.123-8.189-3.123-11.314,0l-24,24c-3.124,3.125-3.124,8.189,0,11.314
		c3.125,3.123,8.189,3.123,11.314,0L136,443.314V480c0,4.418,3.582,8,8,8s8-3.582,8-8v-36.686l10.343,10.343
		c3.286,3.284,8.829,3.021,11.805-0.539c2.619-3.134,2.393-7.891-0.491-10.776L149.657,418.343z"/>
	<path style="fill:#8D919D;" d="M77.657,418.343c-3.125-3.123-8.189-3.123-11.314,0l-24,24c-3.124,3.125-3.124,8.189,0,11.314
		c3.125,3.123,8.189,3.123,11.314,0L64,443.314V480c0,4.418,3.582,8,8,8s8-3.582,8-8v-36.686l10.343,10.343
		c3.286,3.284,8.829,3.021,11.805-0.539c2.619-3.134,2.393-7.891-0.491-10.776L77.657,418.343z"/>
</g>
<g>
	<path style="fill:#EBB645;" d="M136,312h-16c-4.418,0-8-3.582-8-8s3.582-8,8-8h16c4.418,0,8,3.582,8,8S140.418,312,136,312z"/>
	<path style="fill:#EBB645;" d="M96,312H8c-4.418,0-8-3.582-8-8s3.582-8,8-8h88c4.418,0,8,3.582,8,8S100.418,312,96,312z"/>
</g>
<path style="fill:#FFE07E;" d="M216,24H40c-4.418,0-8,3.582-8,8v88l8,24l-8,24v24c0,4.418,3.582,8,8,8h176c4.418,0,8-3.582,8-8V32
	C224,27.582,220.418,24,216,24z"/>
<path style="fill:#FFD653;" d="M48,192V32c0-4.418,3.582-8,8-8H40c-4.418,0-8,3.582-8,8v88l8,24l-8,24v24c0,4.418,3.582,8,8,8h16
	C51.582,200,48,196.418,48,192z"/>
<path style="fill:#EBB645;" d="M152,24h-48v48.526c0,3.195,3.561,5.1,6.219,3.328L128,64l17.781,11.854
	c2.658,1.772,6.219-0.133,6.219-3.328V24z"/>
<path style="fill:#F6F6F7;" d="M144,120H32v48h112c4.418,0,8-3.582,8-8v-32C152,123.582,148.418,120,144,120z"/>
<rect x="32" y="120" style="fill:#D9DADE;" width="16" height="48"/>
<g>
	<path style="fill:#EBB645;" d="M96,112H64c-4.418,0-8-3.582-8-8s3.582-8,8-8h32c4.418,0,8,3.582,8,8S100.418,112,96,112z"/>
	<path style="fill:#EBB645;" d="M144,112h-16c-4.418,0-8-3.582-8-8s3.582-8,8-8h16c4.418,0,8,3.582,8,8S148.418,112,144,112z"/>
</g>
<path style="fill:#FFE07E;" d="M472,136H296c-4.418,0-8,3.582-8,8v88l8,24l-8,24v24c0,4.418,3.582,8,8,8h176c4.418,0,8-3.582,8-8
	V144C480,139.582,476.418,136,472,136z"/>
<path style="fill:#FFD653;" d="M304,304V144c0-4.418,3.582-8,8-8h-16c-4.418,0-8,3.582-8,8v88l8,24l-8,24v24c0,4.418,3.582,8,8,8h16
	C307.582,312,304,308.418,304,304z"/>
<path style="fill:#EBB645;" d="M408,136h-48v48.526c0,3.195,3.561,5.1,6.219,3.328L384,176l17.781,11.854
	c2.658,1.772,6.219-0.133,6.219-3.328V136z"/>
<path style="fill:#F6F6F7;" d="M400,232H288v48h112c4.418,0,8-3.582,8-8v-32C408,235.582,404.418,232,400,232z"/>
<rect x="288" y="232" style="fill:#D9DADE;" width="16" height="48"/>
<g>
	<path style="fill:#EBB645;" d="M352,224h-32c-4.418,0-8-3.582-8-8s3.582-8,8-8h32c4.418,0,8,3.582,8,8S356.418,224,352,224z"/>
	<path style="fill:#EBB645;" d="M400,224h-16c-4.418,0-8-3.582-8-8s3.582-8,8-8h16c4.418,0,8,3.582,8,8S404.418,224,400,224z"/>
</g>
<path style="fill:#FFE07E;" d="M504,312H328c-4.418,0-8,3.582-8,8v88l8,24l-8,24v24c0,4.418,3.582,8,8,8h176c4.418,0,8-3.582,8-8
	V320C512,315.582,508.418,312,504,312z"/>
<path style="fill:#FFD653;" d="M336,480V320c0-4.418,3.582-8,8-8h-16c-4.418,0-8,3.582-8,8v88l8,24l-8,24v24c0,4.418,3.582,8,8,8h16
	C339.582,488,336,484.418,336,480z"/>
<path style="fill:#EBB645;" d="M440,312h-48v48.526c0,3.195,3.561,5.1,6.219,3.328L416,352l17.781,11.854
	c2.658,1.772,6.219-0.133,6.219-3.328V312z"/>
<path style="fill:#F6F6F7;" d="M432,408H320v48h112c4.418,0,8-3.582,8-8v-32C440,411.582,436.418,408,432,408z"/>
<rect x="320" y="408" style="fill:#D9DADE;" width="16" height="48"/>
<g>
	<path style="fill:#EBB645;" d="M384,400h-32c-4.418,0-8-3.582-8-8s3.582-8,8-8h32c4.418,0,8,3.582,8,8S388.418,400,384,400z"/>
	<path style="fill:#EBB645;" d="M432,400h-16c-4.418,0-8-3.582-8-8s3.582-8,8-8h16c4.418,0,8,3.582,8,8S436.418,400,432,400z"/>
</g>
<g>
</g>
<g>
</g>
<g>
</g>
<g>
</g>
<g>
</g>
<g>
</g>
<g>
</g>
<g>
</g>
<g>
</g>
<g>
</g>
<g>
</g>
<g>
</g>
<g>
</g>
<g>
</g>
<g>
</g>
</svg>
