<svg height="512pt" viewBox="-43 0 512 512" width="512pt" xmlns="http://www.w3.org/2000/svg"><path d="m352 512c-5.460938 0-10.921875-2.089844-15.082031-6.25-8.34375-8.34375-8.34375-21.824219 0-30.164062l39.167969-39.171876c4.03125-4.03125 6.25-9.382812 6.25-15.082031 0-5.695312-2.21875-11.050781-6.25-15.082031l-167.339844-167.316406c-8.339844-8.339844-8.339844-21.824219 0-30.164063 8.34375-8.34375 21.824218-8.34375 30.164062 0l167.339844 167.316407c12.074219 12.074218 18.753906 28.160156 18.753906 45.246093 0 17.089844-6.65625 33.175781-18.753906 45.269531l-39.167969 39.148438c-4.160156 4.160156-9.621093 6.25-15.082031 6.25zm0 0" fill="#607d8b"/><path d="m266.667969 426.667969c-5.460938 0-10.925781-2.09375-15.082031-6.253907-8.34375-8.339843-8.34375-21.820312 0-30.164062l69.332031-69.332031c8.339843-8.34375 21.824219-8.34375 30.164062 0 8.34375 8.339843 8.34375 21.824219 0 30.164062l-69.332031 69.332031c-4.160156 4.160157-9.621094 6.253907-15.082031 6.253907zm0 0" fill="#607d8b"/><path d="m277.332031 138.667969c0 76.582031-62.082031 138.664062-138.664062 138.664062-76.585938 0-138.667969-62.082031-138.667969-138.664062 0-76.585938 62.082031-138.667969 138.667969-138.667969 76.582031 0 138.664062 62.082031 138.664062 138.667969zm0 0" fill="#ffc107"/></svg>