<svg height="512pt" viewBox="-140 0 511 512" width="512pt" xmlns="http://www.w3.org/2000/svg"><path d="m222.128906 255.921875c-39.15625-40.535156-46.507812-135.027344-47.886718-169.082031-.308594-7.59375-5.308594-14.179688-12.519532-16.582032-7.503906-2.472656-12.574218-9.480468-12.574218-17.382812v-11.585938h-66.066407v11.585938c0 7.902344-5.070312 14.910156-12.578125 17.382812-7.207031 2.402344-12.207031 8.988282-12.515625 16.582032-1.382812 34.054687-8.734375 128.546875-47.886719 169.082031-5.878906 6.085937-9.601562 13.917969-9.601562 22.378906v217.183594c0 9.121094 7.394531 16.515625 16.515625 16.515625h198.195313c9.121093 0 16.515624-7.394531 16.515624-16.515625v-217.183594c.003907-8.460937-3.71875-16.292969-9.597656-22.378906zm0 0" fill="#ff9a9f"/><path d="m116.117188 41.289062h-33.03125v11.585938c0 7.902344-5.074219 14.910156-12.578126 17.382812-7.207031 2.402344-12.210937 8.988282-12.519531 16.582032-1.378906 34.054687-8.730469 128.546875-47.886719 169.082031-5.878906 6.085937-9.597656 13.917969-9.597656 22.378906v217.183594c0 9.121094 7.394532 16.515625 16.515625 16.515625h99.097657zm0 0" fill="#e5646e"/><path d="m161.550781 255.921875c-16.78125-40.535156-19.933593-135.027344-20.523437-169.082031-.132813-7.59375-2.273438-14.179688-5.363282-16.582032-3.21875-2.472656-5.390624-9.480468-5.390624-17.382812v-11.585938h-28.3125v11.585938c0 7.902344-2.175782 14.910156-5.390626 17.382812-3.089843 2.402344-5.234374 8.988282-5.367187 16.582032-.589844 34.054687-3.742187 128.546875-20.519531 169.082031-2.519532 6.085937-4.117188 13.917969-4.117188 22.378906v233.699219h99.097656v-233.699219c0-8.460937-1.59375-16.292969-4.113281-22.378906zm0 0" fill="#ff8086"/><path d="m116.117188 297.289062c-45.609376 0-82.582032 17.515626-82.582032 39.117188l31.261719 103.65625c1.050781 3.484375 4.261719 5.871094 7.90625 5.871094h86.824219c3.644531 0 6.855468-2.382813 7.90625-5.871094l31.261718-103.65625c0-21.601562-36.972656-39.117188-82.578124-39.117188zm0 0" fill="#ccf49f"/><path d="m116.117188 355.097656c-2.113282 0-4.226563-.808594-5.839844-2.417968l-16.515625-16.519532c-3.226563-3.222656-3.226563-8.449218 0-11.675781 3.226562-3.226563 8.453125-3.226563 11.675781 0l10.679688 10.675781 10.675781-10.675781c3.226562-3.226563 8.453125-3.226563 11.675781 0 3.226562 3.226563 3.226562 8.453125 0 11.675781l-16.515625 16.515625c-1.609375 1.613281-3.722656 2.421875-5.835937 2.421875zm0 0" fill="#95d6a4"/><path d="m66.566406 305.113281c-20.023437 7.136719-33.03125 18.507813-33.03125 31.292969l31.261719 103.65625c.351563 1.160156.957031 2.28125 1.769531 3.140625zm0 0" fill="#b3e59f"/><path d="m165.664062 305.105469v138.101562c.765626-.867187 1.394532-1.855469 1.746094-3.019531l31.285156-103.78125c0-12.785156-13.007812-24.164062-33.03125-31.300781zm0 0" fill="#dfffaf"/><path d="m149.148438 379.871094c0 18.242187-14.789063 33.03125-33.03125 33.03125-18.246094 0-33.03125-14.789063-33.03125-33.03125 0-18.242188 14.785156-33.03125 33.03125-33.03125 18.242187 0 33.03125 14.789062 33.03125 33.03125zm0 0" fill="#ff8086"/><path d="m128.503906 400.515625c-18.242187 0-33.03125-14.789063-33.03125-33.03125 0-5.929687 1.6875-11.414063 4.421875-16.222656-9.992187 5.679687-16.808593 16.292969-16.808593 28.609375 0 18.242187 14.785156 33.03125 33.03125 33.03125 12.3125 0 22.929687-6.816406 28.609374-16.808594-4.8125 2.734375-10.292968 4.421875-16.222656 4.421875zm0 0" fill="#e5646e"/><path d="m173.40625 82.582031c-1.644531-5.699219-5.878906-10.390625-11.679688-12.324219-7.507812-2.472656-12.578124-9.480468-12.578124-17.382812v-14.25h-66.066407v14.25c0 7.902344-5.070312 14.910156-12.574219 17.382812-5.804687 1.933594-10.035156 6.625-11.683593 12.320313h114.582031zm0 0" fill="#db4655"/><path d="m149.40625 41.289062h-66.582031c-4.417969 0-8-3.582031-8-8v-25.289062c0-4.417969 3.582031-8 8-8h66.582031c4.417969 0 8 3.582031 8 8v25.289062c0 4.421876-3.582031 8-8 8zm0 0" fill="#eceaec"/><path d="m107.859375 24.773438c-4.5625 0-8.257813-3.699219-8.257813-8.257813v-16.515625h-16.515624c-4.5625 0-8.261719 3.695312-8.261719 8.257812v24.773438c0 4.5625 3.699219 8.257812 8.261719 8.257812h66.0625c4.5625 0 8.257812-3.695312 8.257812-8.257812v-8.257812zm0 0" fill="#dad8db"/></svg>