<svg height="512pt" viewBox="0 -64 512 512" width="512pt" xmlns="http://www.w3.org/2000/svg"><path d="m24 109.332031h464v266.667969h-464zm0 0" fill="#ff8086"/><path d="m24 109.332031v218.667969h16v-128c0-39.765625 32.234375-72 72-72h376v-18.667969zm0 0" fill="#e5646e"/><path d="m474.457031 48h-436.914062c-3.332031 0-6.320313 2.070312-7.488281 5.191406l-19.238282 51.292969c-1.363281 3.636719 1.328125 7.515625 5.210938 7.515625h479.945312c3.882813 0 6.574219-3.878906 5.207032-7.515625l-19.234376-51.292969c-1.167968-3.121094-4.15625-5.191406-7.488281-5.191406zm0 0" fill="#6f6571"/><path d="m498 96h-484l-3.179688 8.484375c-1.367187 3.636719 1.324219 7.515625 5.207032 7.515625h479.945312c3.882813 0 6.574219-3.878906 5.207032-7.515625zm0 0" fill="#5d5360"/><path d="m256 0c-39.765625 0-72 32.234375-72 72v40h144v-40c0-39.765625-32.234375-72-72-72zm0 0" fill="#ffe09f"/><path d="m24 328h464v48h-464zm0 0" fill="#ffe09f"/><path d="m256 168c-30.929688 0-56 25.070312-56 56v152h112v-152c0-30.929688-25.070312-56-56-56zm0 0" fill="#edf4ff"/><path d="m200 224h112v144h-112zm0 0" fill="#ecbd83"/><path d="m288 352h-64c-4.417969 0-8-3.582031-8-8v-96c0-4.417969 3.582031-8 8-8h64c4.417969 0 8 3.582031 8 8v96c0 4.417969-3.582031 8-8 8zm0 0" fill="#f6d190"/><path d="m112 168c-22.089844 0-40 17.910156-40 40v120h80v-120c0-22.089844-17.910156-40-40-40zm0 0" fill="#dbeaff"/><path d="m112 184c-13.253906 0-24 10.746094-24 24v96c0 4.417969 3.582031 8 8 8h32c4.417969 0 8-3.582031 8-8v-96c0-13.253906-10.746094-24-24-24zm0 0" fill="#edf4ff"/><path d="m256 56c-4.421875 0-8-3.582031-8-8v-16c0-4.417969 3.578125-8 8-8s8 3.582031 8 8v16c0 4.417969-3.578125 8-8 8zm0 0" fill="#c8c5c9"/><path d="m24 328h16v48h-16zm0 0" fill="#f6d190"/><path d="m504 384h-496c-4.421875 0-8-3.582031-8-8s3.578125-8 8-8h496c4.421875 0 8 3.582031 8 8s-3.578125 8-8 8zm0 0" fill="#dad8db"/><path d="m256 40c-22.09375 0-40 17.90625-40 40h80c0-22.09375-17.90625-40-40-40zm0 0" fill="#dad8db"/><path d="m296 72h-46.507812c-4.960938 0-8.84375-4.519531-7.902344-9.394531 2.589844-13.375 8.066406-22.605469 14.410156-22.605469-19.351562 0-35.488281 13.742188-39.195312 32h-.804688c-4.421875 0-8 3.582031-8 8s3.578125 8 8 8h80c4.421875 0 8-3.582031 8-8s-3.578125-8-8-8zm0 0" fill="#c8c5c9"/><path d="m152 216h-80v16h32v96h16v-96h32zm0 0" fill="#f6d190"/><g fill="#ecbd83"><path d="m72 216h16v16h-16zm0 0"/><path d="m104 312h16v16h-16zm0 0"/><path d="m136 216h16v16h-16zm0 0"/></g><path d="m400 168c-22.089844 0-40 17.910156-40 40v120h80v-120c0-22.089844-17.910156-40-40-40zm0 0" fill="#dbeaff"/><path d="m400 184c-13.253906 0-24 10.746094-24 24v96c0 4.417969 3.582031 8 8 8h32c4.417969 0 8-3.582031 8-8v-96c0-13.253906-10.746094-24-24-24zm0 0" fill="#edf4ff"/><path d="m440 216h-80v16h32v96h16v-96h32zm0 0" fill="#f6d190"/><path d="m360 216h16v16h-16zm0 0" fill="#ecbd83"/><path d="m392 312h16v16h-16zm0 0" fill="#ecbd83"/><path d="m424 216h16v16h-16zm0 0" fill="#ecbd83"/><path d="m248 224h16v144h-16zm0 0" fill="#e2a975"/><path d="m264 312h-16c-4.421875 0-8-3.582031-8-8s3.578125-8 8-8h16c4.421875 0 8 3.582031 8 8s-3.578125 8-8 8zm0 0" fill="#eceaec"/></svg>