<?xml version="1.0" encoding="iso-8859-1"?>
<!-- Generator: Adobe Illustrator 21.0.0, SVG Export Plug-In . SVG Version: 6.00 Build 0)  -->
<svg version="1.1" id="Capa_1" xmlns="http://www.w3.org/2000/svg" xmlns:xlink="http://www.w3.org/1999/xlink" x="0px" y="0px"
	 viewBox="0 0 512 512" style="enable-background:new 0 0 512 512;" xml:space="preserve">
<path style="fill:#FFE07E;" d="M480,72H208c-4.418,0-8,3.582-8,8v120l8,24l-8,24v104c0,4.418,3.582,8,8,8h272c4.418,0,8-3.582,8-8
	V80C488,75.582,484.418,72,480,72z"/>
<path style="fill:#FFD653;" d="M224,352V80c0-4.418,3.582-8,8-8h-24c-4.418,0-8,3.582-8,8v120l8,24l-8,24v104c0,4.418,3.582,8,8,8
	h24C227.582,360,224,356.418,224,352z"/>
<path style="fill:#EBB645;" d="M376,72h-64v63.792c0,5.44,5.265,9.554,10.53,7.797l21.47-7.157l21.47,7.157
	c5.283,1.761,10.53-2.37,10.53-7.812V72z"/>
<path style="fill:#F6F6F7;" d="M336,200H200v48h136c4.418,0,8-3.582,8-8v-32C344,203.582,340.418,200,336,200z"/>
<rect x="200" y="200" style="fill:#ECEDEF;" width="24" height="48"/>
<g>
	<path style="fill:#EBB645;" d="M336,184h-16c-4.418,0-8-3.582-8-8s3.582-8,8-8h16c4.418,0,8,3.582,8,8S340.418,184,336,184z"/>
	<path style="fill:#EBB645;" d="M296,184h-88c-4.418,0-8-3.582-8-8s3.582-8,8-8h88c4.418,0,8,3.582,8,8S300.418,184,296,184z"/>
</g>
<path style="fill:#FAEDD1;" d="M498.225,346.449c-8.627-8.004-20.341-11.509-34.823-10.426
	c-36.133,2.71-135.142,13.316-156.273,15.593l-50.846-54.684C282.761,308.963,311.54,320,328,320
	c24.749,0,36.585-13.281,42.155-24.422C375.934,284.021,376,272.485,376,272c0-3.271-1.991-6.213-5.029-7.428l-160-64
	C210.026,200.194,209.018,200,208,200H8c-4.418,0-8,3.582-8,8v152c0,4.418,3.582,8,8,8h143.294
	c10.84,3.149,91.806,45.046,140.963,71.07c1.162,0.615,2.448,0.93,3.743,0.93c0.661,0,1.325-0.082,1.976-0.248l208-53
	C509.52,385.849,512,382.658,512,379C512,378.193,511.844,359.084,498.225,346.449z"/>
<g>
	<path style="fill:#F7E4B9;" d="M505.976,362.752l-208,53c-0.65,0.166-1.314,0.248-1.976,0.248c-1.295,0-2.581-0.314-3.743-0.93
		C243.1,389.046,162.134,347.149,151.294,344H8c-4.418,0-8-3.582-8-8v24c0,4.418,3.582,8,8,8h143.294
		c10.84,3.149,91.806,45.046,140.963,71.07c1.162,0.615,2.448,0.93,3.743,0.93c0.661,0,1.325-0.082,1.976-0.248l208-53
		C509.52,385.849,512,382.658,512,379c0-0.512-0.068-8.398-3.596-17.321C507.675,362.16,506.858,362.527,505.976,362.752z"/>
	<path style="fill:#F7E4B9;" d="M370.155,295.578C375.934,284.021,376,272.485,376,272c0-2.595-1.266-4.967-3.301-6.45
		c-0.693,1.969-1.529,3.997-2.544,6.028C364.585,282.719,352.749,296,328,296c-31.504,0-106.955-39.862-122.03-48v24
		c15.075,8.138,90.526,48,122.03,48C352.749,320,364.585,306.719,370.155,295.578z"/>
</g>
<g>
</g>
<g>
</g>
<g>
</g>
<g>
</g>
<g>
</g>
<g>
</g>
<g>
</g>
<g>
</g>
<g>
</g>
<g>
</g>
<g>
</g>
<g>
</g>
<g>
</g>
<g>
</g>
<g>
</g>
</svg>
