<?xml version="1.0" encoding="iso-8859-1"?>
<!-- Generator: Adobe Illustrator 19.0.0, SVG Export Plug-In . SVG Version: 6.00 Build 0)  -->
<svg version="1.1" id="Capa_1" xmlns="http://www.w3.org/2000/svg" xmlns:xlink="http://www.w3.org/1999/xlink" x="0px" y="0px"
	 viewBox="0 0 512.001 512.001" style="enable-background:new 0 0 512.001 512.001;" xml:space="preserve">
<path style="fill:#FDC572;" d="M495.193,264.616L438.164,90.117c-1.396-4.267-5.99-6.595-10.251-5.2L274.66,135.002
	c-2.049,0.669-3.747,2.125-4.722,4.047L142.667,389.897c-0.975,1.922-1.147,4.153-0.477,6.202c0.669,2.049,2.125,3.748,4.047,4.723
	L363.67,511.141c3.954,2.005,8.922,0.379,10.925-3.571l120.121-236.752C495.691,268.895,495.863,266.665,495.193,264.616z"/>
<path style="fill:#F1839B;" d="M431.617,84.752L286.754,13.97c-1.934-0.946-4.168-1.084-6.208-0.384L14.521,104.974
	c-4.181,1.437-6.486,6.137-5.046,10.327L88.69,345.892c1.158,3.371,4.31,5.489,7.685,5.489c0.876,0,1.767-0.142,2.641-0.443
	l251.079-86.254c2.038-0.7,3.715-2.181,4.661-4.118l80.594-164.943C437.322,91.589,435.65,86.723,431.617,84.752z"/>
<path style="fill:#EE6482;" d="M354.757,260.566l80.594-164.943c1.971-4.033,0.299-8.899-3.734-10.87L286.754,13.97
	c-1.934-0.946-4.168-1.084-6.208-0.384l-1.933,0.664L52.454,240.41L88.69,345.892c1.158,3.371,4.31,5.489,7.685,5.489
	c0.876,0,1.767-0.142,2.641-0.443l251.079-86.254C352.134,263.983,353.811,262.502,354.757,260.566z"/>
<path style="fill:#FCB74F;" d="M487.758,241.866L438.164,90.117c-1.396-4.267-5.99-6.595-10.251-5.2L274.66,135.002
	c-2.049,0.669-3.747,2.125-4.722,4.047L142.667,389.897c-0.975,1.922-1.147,4.153-0.477,6.202c0.669,2.049,2.125,3.748,4.047,4.723
	l121.116,61.45L487.758,241.866z"/>
<path style="fill:#75E0F1;" d="M505.491,13.595c-0.147-4.269-3.574-7.696-7.843-7.842L330.989,0.006
	c-2.248-0.089-4.434,0.783-6.027,2.375L3.14,324.205c-3.175,3.174-3.175,8.319,0,11.493l172.406,172.406
	c3.131,3.131,8.362,3.131,11.493,0L508.862,186.28c1.592-1.593,2.452-3.775,2.375-6.027L505.491,13.595z M457.141,77.09
	c-6.339,6.337-16.65,6.337-22.989,0c-6.266-6.266-6.265-16.721,0.001-22.987c6.264-6.265,16.723-6.265,22.987,0
	C463.478,60.441,463.478,70.753,457.141,77.09z"/>
<g>
	<path style="fill:#FFFFFF;" d="M363.885,221.654l-36.214,36.13l-80.815-80.815c-2.977-2.976-7.8-2.976-10.776,0
		c-2.976,2.976-2.976,7.8,0,10.775l86.202,86.203c2.936,2.936,7.84,2.935,10.776,0l41.852-41.767
		c3.022-3.022,2.975-7.955-0.145-10.916C371.727,218.378,366.848,218.691,363.885,221.654z"/>
	<path style="fill:#FFFFFF;" d="M312.839,283.785L190.718,233.5c-6.131-2.525-12.471,3.815-9.947,9.947l50.285,122.12
		c1.664,4.041,6.551,5.869,10.464,3.908c3.519-1.763,5.124-6.073,3.627-9.71l-23.208-56.364l28.734-28.734l56.364,23.208
		c3.84,1.582,8.366-0.304,9.947-4.145C318.564,289.892,316.678,285.366,312.839,283.785z M215.654,288.136l-13.829-33.583
		l33.583,13.829L215.654,288.136z"/>
	<path style="fill:#FFFFFF;" d="M212.836,397.949c9.778-14.785,8.164-34.938-4.846-47.947c-7.196-7.196-16.763-11.158-26.938-11.158
		s-19.743,3.962-26.939,11.158l-7.182,7.184c-8.913,8.912-23.414,8.912-32.326,0c-8.912-8.912-8.912-23.414,0-32.326l7.18-7.179
		c0.001-0.001,0.003-0.002,0.004-0.003c0.001-0.001,0.002-0.003,0.003-0.004l21.547-21.547c2.976-2.976,2.976-7.8,0-10.775
		c-2.976-2.977-7.8-2.976-10.775,0l-16.163,16.163l-8.98-8.98c-2.976-2.976-7.8-2.976-10.775,0c-2.976,2.976-2.976,7.8,0,10.775
		l8.98,8.98l-1.796,1.796c-14.854,14.854-14.854,39.023,0,53.877c14.854,14.854,39.023,14.854,53.878,0l7.182-7.184
		c8.913-8.912,23.413-8.913,32.326,0c8.911,8.912,8.912,23.411,0.002,32.323c-0.001,0.001-0.002,0.002-0.003,0.002
		c-0.002,0.002-0.003,0.003-0.005,0.005l-28.73,28.729c-2.774,2.773-2.958,7.356-0.405,10.338c2.85,3.327,8.081,3.536,11.18,0.437
		l23.347-23.347l8.98,8.98c3.099,3.1,8.331,2.89,11.18-0.437c2.554-2.982,2.369-7.564-0.405-10.338L212.836,397.949z"/>
	<path style="fill:#FFFFFF;" d="M423.283,166.415l-21.552,21.55c-8.911,8.912-23.414,8.912-32.324,0l-16.163-16.163l30.53-30.53
		c2.976-2.976,2.976-7.8,0-10.775c-2.977-2.976-7.8-2.976-10.776,0l-30.53,30.529l-16.162-16.162
		c-8.811-8.811-8.812-23.515,0-32.326l21.551-21.55c2.976-2.976,2.976-7.8,0-10.775c-2.977-2.977-7.8-2.976-10.776,0l-21.549,21.55
		c-11.217,11.216-14.325,28.752-7.57,43.128c1.874,3.988,4.454,7.633,7.569,10.748l43.102,43.101
		c11.168,11.168,28.592,14.247,42.93,7.641c4.065-1.873,7.782-4.476,10.945-7.641l21.551-21.55
		c2.977-2.976,2.977-7.799,0.001-10.775S426.259,163.44,423.283,166.415z"/>
</g>
<g>
</g>
<g>
</g>
<g>
</g>
<g>
</g>
<g>
</g>
<g>
</g>
<g>
</g>
<g>
</g>
<g>
</g>
<g>
</g>
<g>
</g>
<g>
</g>
<g>
</g>
<g>
</g>
<g>
</g>
</svg>
