<svg height="512pt" viewBox="-45 0 512 512.001" width="512pt" xmlns="http://www.w3.org/2000/svg"><path d="m16.253906 8.128906 28.699219 45.914063c7.425781 11.882812 20.449219 19.101562 34.457031 19.101562h263.78125c14.011719 0 27.035156-7.21875 34.460938-19.101562l28.695312-45.914063zm0 0" fill="#c8c5c9"/><path d="m211.300781 56.890625c-8.976562 0-16.253906 7.273437-16.253906 16.253906v32.507813h32.507813v-32.507813c0-8.980469-7.273438-16.253906-16.253907-16.253906zm0 0" fill="#dad8db"/><path d="m122.09375 32.507812h269.019531l15.238281-24.378906h-390.097656l28.699219 45.917969c7.425781 11.878906 20.449219 19.097656 34.457031 19.097656h35.382813l-7.660157-18.023437c-4.554687-10.722656 3.3125-22.613282 14.960938-22.613282zm0 0" fill="#b6b1b7"/><path d="m414.476562 16.253906h-406.347656c-4.492187 0-8.128906-3.636718-8.128906-8.125 0-4.492187 3.636719-8.128906 8.128906-8.128906h406.347656c4.492188 0 8.125 3.636719 8.125 8.128906 0 4.488282-3.632812 8.125-8.125 8.125zm0 0" fill="#dad8db"/><path d="m284.445312 157.5h-16.253906v-35.59375c0-4.484375-3.644531-8.128906-8.125-8.128906h-97.527344c-4.484374 0-8.125 3.644531-8.125 8.128906v35.59375h-16.253906v-35.59375c0-13.445312 10.9375-24.382812 24.378906-24.382812h97.527344c13.441406 0 24.378906 10.9375 24.378906 24.382812zm0 0" fill="#857e87"/><path d="m300.953125 154.414062h-179.300781c-8.835938 0-16 7.160157-16 16v325.332032h211.300781v-325.332032c0-8.839843-7.164063-16-16-16zm0 0" fill="#6f6571"/><path d="m105.652344 365.714844v52.246094c26.632812 27.847656 64.070312 45.277343 105.648437 45.277343 41.582031 0 79.019531-17.429687 105.652344-45.277343v-52.246094zm0 0" fill="#5d5360"/><path d="m341.335938 316.953125c0 71.8125-58.21875 130.03125-130.035157 130.03125-71.8125 0-130.03125-58.21875-130.03125-130.03125 0-71.816406 58.21875-130.03125 130.03125-130.03125 71.816407 0 130.035157 58.214844 130.035157 130.03125zm0 0" fill="#857e87"/><path d="m325.082031 316.953125c0 62.835937-50.941406 113.777344-113.78125 113.777344-62.835937 0-113.777343-50.941407-113.777343-113.777344 0-62.839844 50.941406-113.777344 113.777343-113.777344 62.839844 0 113.78125 50.9375 113.78125 113.777344zm0 0" fill="#fff"/><path d="m231.621094 410.414062c-62.839844 0-113.78125-50.941406-113.78125-113.777343 0-26.238281 9.085937-50.566407 24.003906-69.8125-26.851562 20.8125-44.320312 53.527343-44.320312 90.128906 0 62.835937 50.941406 113.777344 113.777343 113.777344 36.601563 0 69.199219-17.320313 90.011719-44.167969-19.246094 14.917969-43.457031 23.851562-69.691406 23.851562zm0 0" fill="#eceaec"/><path d="m243.808594 316.953125c0 17.953125-14.550782 32.507813-32.507813 32.507813-17.953125 0-32.507812-14.554688-32.507812-32.507813s14.554687-32.507813 32.507812-32.507813c17.957031 0 32.507813 14.554688 32.507813 32.507813zm0 0" fill="#eceaec"/><path d="m346.210938 485.992188c-3.070313-4.089844-7.886719-6.5-13.003907-6.5h-243.808593c-5.117188 0-9.933594 2.410156-13.003907 6.5l-13.652343 18.207031c-2.410157 3.214843-.117188 7.800781 3.898437 7.800781h289.320313c4.019531 0 6.3125-4.585938 3.902343-7.800781zm0 0" fill="#857e87"/><path d="m219.429688 316.953125v-97.523437c0-4.492188-3.636719-8.128907-8.128907-8.128907-4.492187 0-8.125 3.636719-8.125 8.128907v97.523437h-8.128906v40.632813c0 4.488281 3.640625 8.128906 8.128906 8.128906h16.253907c4.488281 0 8.125-3.640625 8.125-8.128906v-40.632813zm0 0" fill="#e5646e"/><g fill="#6f6571"><path d="m211.300781 414.476562c-4.492187 0-8.125-3.636718-8.125-8.128906v-14.894531c0-4.492187 3.632813-8.128906 8.125-8.128906 4.492188 0 8.128907 3.636719 8.128907 8.128906v14.894531c0 4.492188-3.636719 8.128906-8.128907 8.128906zm0 0"/><path d="m136.800781 325.078125h-14.894531c-4.492188 0-8.128906-3.632813-8.128906-8.125s3.636718-8.128906 8.128906-8.128906h14.894531c4.492188 0 8.128907 3.636719 8.128907 8.128906s-3.636719 8.125-8.128907 8.125zm0 0"/><path d="m300.699219 325.078125h-14.898438c-4.492187 0-8.125-3.632813-8.125-8.125s3.632813-8.128906 8.125-8.128906h14.898438c4.492187 0 8.128906 3.636719 8.128906 8.128906s-3.636719 8.125-8.128906 8.125zm0 0"/><path d="m148.089844 388.292969c-2.082032 0-4.160156-.792969-5.746094-2.378907-3.175781-3.175781-3.175781-8.316406 0-11.492187l10.539062-10.539063c3.175782-3.175781 8.316407-3.175781 11.492188 0 3.175781 3.171876 3.175781 8.316407 0 11.488282l-10.539062 10.542968c-1.589844 1.585938-3.667969 2.378907-5.746094 2.378907zm0 0"/><path d="m263.976562 272.40625c-2.078124 0-4.15625-.796875-5.746093-2.382812-3.175781-3.175782-3.175781-8.316407 0-11.492188l10.542969-10.539062c3.171874-3.175782 8.316406-3.175782 11.488281 0 3.175781 3.175781 3.175781 8.316406 0 11.492187l-10.539063 10.539063c-1.585937 1.585937-3.667968 2.382812-5.746094 2.382812zm0 0"/><path d="m158.628906 272.40625c-2.082031 0-4.160156-.796875-5.746094-2.382812l-10.542968-10.539063c-3.171875-3.175781-3.171875-8.316406 0-11.492187 3.175781-3.175782 8.320312-3.175782 11.492187 0l10.542969 10.539062c3.171875 3.175781 3.171875 8.316406 0 11.492188-1.589844 1.585937-3.667969 2.382812-5.746094 2.382812zm0 0"/><path d="m274.515625 388.292969c-2.078125 0-4.15625-.792969-5.746094-2.378907l-10.539062-10.542968c-3.175781-3.171875-3.175781-8.316406 0-11.488282 3.175781-3.175781 8.316406-3.175781 11.492187 0l10.539063 10.539063c3.175781 3.175781 3.175781 8.316406 0 11.492187-1.585938 1.585938-3.664063 2.378907-5.746094 2.378907zm0 0"/><path d="m177.152344 242.476562c-3.304688 0-6.414063-2-7.636719-5.261718-1.570313-4.199219.523437-8.875 4.722656-10.453125l.0625-.023438c4.214844-1.554687 8.898438.546875 10.46875 4.753907 1.570313 4.207031-.554687 8.890624-4.753906 10.46875-.941406.347656-1.910156.515624-2.863281.515624zm0 0"/><path d="m245.574219 407.660156c-3.40625 0-6.597657-2.144531-7.730469-5.550781-1.421875-4.253906.847656-8.847656 5.101562-10.261719l.070313-.023437c4.304687-1.4375 8.867187.882812 10.277344 5.136719 1.421875 4.261718-.878907 8.863281-5.132813 10.277343-.859375.285157-1.730468.421875-2.585937.421875zm0 0"/><path d="m293.953125 290.90625c-3.117187 0-6.085937-1.796875-7.4375-4.828125-1.816406-4.101563.011719-8.941406 4.113281-10.761719 4.101563-1.855468 8.898438-.007812 10.714844 4.089844l.03125.070312c1.816406 4.101563-.023438 8.90625-4.128906 10.730469-1.070313.476563-2.191406.699219-3.292969.699219zm0 0"/><path d="m128.769531 359.324219c-3.117187 0-6.085937-1.792969-7.433593-4.824219-1.820313-4.101562.007812-8.945312 4.109374-10.761719 4.101563-1.855469 8.898438 0 10.714844 4.085938l.03125.070312c1.816406 4.105469-.023437 8.90625-4.125 10.730469-1.074218.476562-2.191406.699219-3.296875.699219zm0 0"/><path d="m245.589844 242.5c-.851563 0-1.714844-.136719-2.574219-.421875-4.253906-1.414063-6.59375-6.03125-5.171875-10.285156 1.417969-4.269531 6-6.585938 10.246094-5.152344l.070312.023437c4.253906 1.414063 6.554688 6.019532 5.132813 10.28125-1.132813 3.402344-4.300781 5.554688-7.703125 5.554688zm0 0"/><path d="m177.160156 407.683594c-.953125 0-1.914062-.167969-2.859375-.515625-4.195312-1.578125-6.355469-6.277344-4.785156-10.476563 1.5625-4.199218 6.160156-6.347656 10.4375-4.769531l.0625.023437c4.199219 1.578126 6.324219 6.261719 4.753906 10.46875-1.222656 3.261719-4.324219 5.269532-7.609375 5.269532zm0 0"/><path d="m293.90625 359.324219c-1.105469 0-2.222656-.222657-3.292969-.695313-4.105469-1.828125-5.945312-6.628906-4.128906-10.730468 1.816406-4.105469 6.652344-5.984376 10.746094-4.160157 4.101562 1.816407 5.960937 6.585938 4.144531 10.691407l-.035156.070312c-1.347656 3.023438-4.316406 4.824219-7.433594 4.824219zm0 0"/><path d="m128.722656 290.90625c-1.101562 0-2.222656-.222656-3.292968-.699219-4.101563-1.824219-5.945313-6.628906-4.128907-10.730469 1.828125-4.101562 6.652344-6 10.746094-4.160156 4.105469 1.820313 5.960937 6.589844 4.144531 10.691406l-.03125.070313c-1.351562 3.023437-4.316406 4.828125-7.4375 4.828125zm0 0"/><path d="m62.742188 504.199219c-2.410157 3.214843-.117188 7.800781 3.898437 7.800781h289.324219c4.015625 0 6.3125-4.585938 3.898437-7.800781l-6.335937-8.453125h-284.445313zm0 0"/></g><path d="m227.554688 316.953125c0 8.976563-7.273438 16.253906-16.253907 16.253906-8.976562 0-16.253906-7.277343-16.253906-16.253906s7.277344-16.253906 16.253906-16.253906c8.980469 0 16.253907 7.277343 16.253907 16.253906zm0 0" fill="#ffe09f"/></svg>