<?xml version="1.0" encoding="iso-8859-1"?>
<!-- Generator: Adobe Illustrator 21.0.0, SVG Export Plug-In . SVG Version: 6.00 Build 0)  -->
<svg version="1.1" id="Capa_1" xmlns="http://www.w3.org/2000/svg" xmlns:xlink="http://www.w3.org/1999/xlink" x="0px" y="0px"
	 viewBox="0 0 512 512" style="enable-background:new 0 0 512 512;" xml:space="preserve">
<path style="fill:#A696C8;" d="M503.983,371.975H101.545V29.395c0-13.851-11.268-25.119-25.119-25.119H8.017
	C3.589,4.276,0,7.865,0,12.292v34.205c0,4.427,3.589,8.017,8.017,8.017h43.29v342.58c0,13.851,11.268,25.119,25.119,25.119h427.557
	c4.427,0,8.017-3.589,8.017-8.017v-34.205C512,375.564,508.411,371.975,503.983,371.975z"/>
<path style="fill:#9784BF;" d="M94.063,405.645c-13.851,0-25.119-11.268-25.119-25.119V37.946h-43.29
	c-4.427,0-8.017-3.589-8.017-8.017V4.276h-9.62C3.589,4.276,0,7.865,0,12.292v34.205c0,4.427,3.589,8.017,8.017,8.017h43.29v342.58
	c0,13.851,11.268,25.119,25.119,25.119h427.557c4.427,0,8.017-3.589,8.017-8.017v-8.551H94.063z"/>
<path style="fill:#A0A3AD;" d="M281.653,389.077c-32.711,0-59.324,26.612-59.324,59.324s26.612,59.324,59.324,59.324
	s59.324-26.612,59.324-59.324S314.365,389.077,281.653,389.077z"/>
<path style="fill:#7A7F8D;" d="M281.653,405.645c-23.576,0-42.756,19.18-42.756,42.756c0,23.576,19.18,42.756,42.756,42.756
	c23.576,0,42.756-19.18,42.756-42.756C324.409,424.825,305.229,405.645,281.653,405.645z"/>
<path style="fill:#ECEDEF;" d="M281.653,423.282c-13.851,0-25.119,11.268-25.119,25.119s11.268,25.119,25.119,25.119
	c13.851,0,25.119-11.268,25.119-25.119S295.504,423.282,281.653,423.282z"/>
<path style="fill:#FFE07E;" d="M418.472,46.497H127.733c-4.722,0-8.551,3.829-8.551,8.551v128.267l8.551,25.653l-8.551,25.653
	v111.165c0,4.722,3.829,8.551,8.551,8.551h290.739c4.722,0,8.551-3.829,8.551-8.551V55.048
	C427.023,50.326,423.194,46.497,418.472,46.497z"/>
<path style="fill:#FFD653;" d="M144.835,345.787V55.048c0-4.722,3.829-8.551,8.551-8.551h-25.653c-4.722,0-8.551,3.829-8.551,8.551
	v128.267l8.551,25.653l-8.551,25.653v111.165c0,4.722,3.829,8.551,8.551,8.551h25.653
	C148.664,354.338,144.835,350.509,144.835,345.787z"/>
<path style="fill:#EBB645;" d="M307.307,46.497h-68.409v68.187c0,5.815,5.628,10.212,11.255,8.334l22.949-7.65l22.949,7.65
	c5.647,1.882,11.255-2.533,11.255-8.35V46.497z"/>
<path style="fill:#F6F6F7;" d="M264.551,183.315h-145.37v51.307h145.37c4.722,0,8.551-3.829,8.551-8.551v-34.205
	C273.102,187.144,269.274,183.315,264.551,183.315z"/>
<rect x="119.182" y="183.315" style="fill:#D9DADE;" width="25.653" height="51.307"/>
<g>
	<path style="fill:#8D919D;" d="M381.763,305.536l-25.653-25.653c-3.339-3.339-8.753-3.339-12.092,0l-25.653,25.653
		c-3.34,3.339-3.34,8.753,0,12.092c3.339,3.339,8.753,3.339,12.092,0l11.056-11.056v39.215c0,4.722,3.829,8.551,8.551,8.551
		c4.722,0,8.551-3.829,8.551-8.551v-39.215l11.056,11.056c3.294,3.294,8.798,3.294,12.092,0
		C385.102,314.29,385.102,308.875,381.763,305.536z"/>
	<path style="fill:#8D919D;" d="M279.149,279.882c-3.339-3.339-8.753-3.339-12.092,0l-25.653,25.653
		c-3.34,3.339-3.34,8.753,0,12.092c3.339,3.339,8.753,3.339,12.092,0l11.056-11.056v39.215c0,4.722,3.829,8.551,8.551,8.551
		s8.551-3.829,8.551-8.551v-39.215l11.056,11.056c3.294,3.294,8.798,3.294,12.092,0c3.34-3.339,3.34-8.753,0-12.092L279.149,279.882
		z"/>
	<path style="fill:#8D919D;" d="M202.189,279.882c-3.339-3.339-8.753-3.339-12.092,0l-25.653,25.653
		c-3.34,3.339-3.34,8.753,0,12.092c3.339,3.339,8.753,3.339,12.092,0l11.056-11.056v39.215c0,4.722,3.829,8.551,8.551,8.551
		s8.551-3.829,8.551-8.551v-39.215l11.056,11.056c3.294,3.294,8.798,3.294,12.092,0c3.34-3.339,3.34-8.753,0-12.092L202.189,279.882
		z"/>
</g>
<g>
	<path style="fill:#EBB645;" d="M264.551,166.213h-17.102c-4.722,0-8.551-3.829-8.551-8.551c0-4.722,3.829-8.551,8.551-8.551h17.102
		c4.722,0,8.551,3.829,8.551,8.551C273.102,162.384,269.274,166.213,264.551,166.213z"/>
	<path style="fill:#EBB645;" d="M221.795,166.213h-94.063c-4.722,0-8.551-3.829-8.551-8.551c0-4.722,3.829-8.551,8.551-8.551h94.063
		c4.722,0,8.551,3.829,8.551,8.551C230.347,162.384,226.518,166.213,221.795,166.213z"/>
</g>
<g>
</g>
<g>
</g>
<g>
</g>
<g>
</g>
<g>
</g>
<g>
</g>
<g>
</g>
<g>
</g>
<g>
</g>
<g>
</g>
<g>
</g>
<g>
</g>
<g>
</g>
<g>
</g>
<g>
</g>
</svg>
